<svg xmlns="http://www.w3.org/2000/svg" width="32" height="32.483" viewBox="0 0 32 32.483">
  <path id="パス_922" data-name="パス 922" d="M78.931,72.917s-3.8-2.786-8.386-6.377c-5.072-3.968-5.423-8.236-4.168-8.989,1.386-.832,3.566,4.017,3.566,4.017s7.583-5.725,6.709-18.743c0,0-3.377,4.908-6.318,8.509-3.159,3.869-7.607,5.544-8.767,4s3.546-3.287,3.546-3.287-.452-5.61-18.181-6.9c0,0,7.479,4.964,10.122,7.8s3.8,7.158,2.514,7.8-2.964-2.513-3.545-4.19c0,0-5.854,2.7-6.564,18.751a101.447,101.447,0,0,1,7.789-9.984c3.51-3.738,6.834-3.159,7.348-2.579s-2.192,3.095-4.384,3.546C60.213,66.291,65.172,73.319,78.931,72.917ZM63.058,60.429a1.314,1.314,0,1,1,1.314-1.314A1.313,1.313,0,0,1,63.058,60.429Z" transform="translate(-46.931 -42.825)" fill="#f0ebce"/>
</svg>
